# xmcd
# 
# Track frame offsets:
#     150
#     19269
#     41955
#     63732
#     86800
#     107845
#     121779
#     140535
#     156502
# 
# Disc length: 2334
# 
# Revision: 0
# Processed by: cddbd v1.5.2PL0 Copyright (c) Steve Scherf et al.
# Submitted via: BonkEnc v1.0
# 
DISCID=83091c09
DTITLE=Eppu Normaali - Kahdeksas ihme
DYEAR=1985
DGENRE=Rock
TTITLE0=Tien päällä taas
TTITLE1=Voi kuinka me sinua kaivataan
TTITLE2=Vuonna 85
TTITLE3=Elmän tarkoitus
TTITLE4=Kitara taivas ja tähdet
TTITLE5=Tihkumme seksiä
TTITLE6=Vihreän joen rannalla (kauan sitten)
TTITLE7=Yöjuttu
TTITLE8=Läpivalaistu
EXTD=
EXTT0=
EXTT1=
EXTT2=
EXTT3=
EXTT4=
EXTT5=
EXTT6=
EXTT7=
EXTT8=
PLAYORDER=
